<mxfile host="app.diagrams.net" modified="2023-06-24T08:01:09.751Z" agent="Mozilla/5.0 (Windows NT 10.0; Win64; x64) AppleWebKit/537.36 (KHTML, like Gecko) Chrome/114.0.0.0 Safari/537.36" etag="XNRSyMwVV7JpyYfYETDL" version="21.5.0" type="github">
  <diagram id="C5RBs43oDa-KdzZeNtuy" name="Page-1">
    <mxGraphModel dx="880" dy="452" grid="0" gridSize="10" guides="1" tooltips="1" connect="1" arrows="1" fold="1" page="0" pageScale="1" pageWidth="827" pageHeight="1169" math="0" shadow="0">
      <root>
        <mxCell id="WIyWlLk6GJQsqaUBKTNV-0" />
        <mxCell id="WIyWlLk6GJQsqaUBKTNV-1" parent="WIyWlLk6GJQsqaUBKTNV-0" />
        <mxCell id="osm4gxQ5vxb-l2w61dZA-4" style="edgeStyle=orthogonalEdgeStyle;rounded=0;orthogonalLoop=1;jettySize=auto;html=1;entryX=0.5;entryY=0;entryDx=0;entryDy=0;fontSize=13;strokeWidth=2;" edge="1" parent="WIyWlLk6GJQsqaUBKTNV-1" source="WIyWlLk6GJQsqaUBKTNV-3" target="osm4gxQ5vxb-l2w61dZA-3">
          <mxGeometry relative="1" as="geometry" />
        </mxCell>
        <mxCell id="WIyWlLk6GJQsqaUBKTNV-3" value="Start" style="rounded=1;whiteSpace=wrap;html=1;fontSize=13;glass=0;strokeWidth=2;shadow=0;fillColor=#f8cecc;strokeColor=#b85450;" parent="WIyWlLk6GJQsqaUBKTNV-1" vertex="1">
          <mxGeometry x="176" y="82" width="90" height="40" as="geometry" />
        </mxCell>
        <mxCell id="osm4gxQ5vxb-l2w61dZA-9" style="edgeStyle=orthogonalEdgeStyle;rounded=0;orthogonalLoop=1;jettySize=auto;html=1;entryX=0.45;entryY=0;entryDx=0;entryDy=0;entryPerimeter=0;fontSize=13;strokeWidth=2;" edge="1" parent="WIyWlLk6GJQsqaUBKTNV-1" source="WIyWlLk6GJQsqaUBKTNV-6" target="osm4gxQ5vxb-l2w61dZA-8">
          <mxGeometry relative="1" as="geometry" />
        </mxCell>
        <mxCell id="WIyWlLk6GJQsqaUBKTNV-6" value="sum = sum + (i * i)" style="rhombus;whiteSpace=wrap;html=1;shadow=0;fontFamily=Helvetica;fontSize=13;align=center;strokeWidth=2;spacing=6;spacingTop=-4;fillColor=#fff2cc;strokeColor=#d6b656;" parent="WIyWlLk6GJQsqaUBKTNV-1" vertex="1">
          <mxGeometry x="156" y="342" width="130" height="90" as="geometry" />
        </mxCell>
        <mxCell id="WIyWlLk6GJQsqaUBKTNV-11" value="End" style="rounded=1;whiteSpace=wrap;html=1;fontSize=13;glass=0;strokeWidth=2;shadow=0;fillColor=#f8cecc;strokeColor=#b85450;" parent="WIyWlLk6GJQsqaUBKTNV-1" vertex="1">
          <mxGeometry x="180" y="552" width="94" height="40" as="geometry" />
        </mxCell>
        <mxCell id="osm4gxQ5vxb-l2w61dZA-6" style="edgeStyle=orthogonalEdgeStyle;rounded=0;orthogonalLoop=1;jettySize=auto;html=1;entryX=0.5;entryY=0;entryDx=0;entryDy=0;fontSize=13;strokeWidth=2;" edge="1" parent="WIyWlLk6GJQsqaUBKTNV-1" source="osm4gxQ5vxb-l2w61dZA-3" target="osm4gxQ5vxb-l2w61dZA-5">
          <mxGeometry relative="1" as="geometry" />
        </mxCell>
        <mxCell id="osm4gxQ5vxb-l2w61dZA-3" value="iInitialize:&amp;nbsp;&lt;br style=&quot;font-size: 13px;&quot;&gt;sum = 0&lt;br style=&quot;font-size: 13px;&quot;&gt;i = 0" style="rounded=0;whiteSpace=wrap;html=1;fillColor=#d5e8d4;strokeColor=#82b366;fontSize=13;strokeWidth=2;" vertex="1" parent="WIyWlLk6GJQsqaUBKTNV-1">
          <mxGeometry x="161" y="162" width="120" height="50" as="geometry" />
        </mxCell>
        <mxCell id="osm4gxQ5vxb-l2w61dZA-7" style="edgeStyle=orthogonalEdgeStyle;rounded=0;orthogonalLoop=1;jettySize=auto;html=1;entryX=0.5;entryY=0;entryDx=0;entryDy=0;fontSize=13;strokeWidth=2;" edge="1" parent="WIyWlLk6GJQsqaUBKTNV-1" source="osm4gxQ5vxb-l2w61dZA-5" target="WIyWlLk6GJQsqaUBKTNV-6">
          <mxGeometry relative="1" as="geometry" />
        </mxCell>
        <mxCell id="osm4gxQ5vxb-l2w61dZA-5" value="input: i" style="shape=parallelogram;perimeter=parallelogramPerimeter;whiteSpace=wrap;html=1;fixedSize=1;fillColor=#dae8fc;strokeColor=#6c8ebf;fontSize=13;strokeWidth=2;" vertex="1" parent="WIyWlLk6GJQsqaUBKTNV-1">
          <mxGeometry x="161" y="252" width="120" height="50" as="geometry" />
        </mxCell>
        <mxCell id="osm4gxQ5vxb-l2w61dZA-10" style="edgeStyle=orthogonalEdgeStyle;rounded=0;orthogonalLoop=1;jettySize=auto;html=1;entryX=0.5;entryY=0;entryDx=0;entryDy=0;fontSize=13;strokeWidth=2;" edge="1" parent="WIyWlLk6GJQsqaUBKTNV-1" source="osm4gxQ5vxb-l2w61dZA-8" target="WIyWlLk6GJQsqaUBKTNV-11">
          <mxGeometry relative="1" as="geometry" />
        </mxCell>
        <mxCell id="osm4gxQ5vxb-l2w61dZA-11" style="edgeStyle=orthogonalEdgeStyle;rounded=0;orthogonalLoop=1;jettySize=auto;html=1;entryX=1;entryY=0.25;entryDx=0;entryDy=0;fontSize=13;strokeWidth=2;" edge="1" parent="WIyWlLk6GJQsqaUBKTNV-1" source="osm4gxQ5vxb-l2w61dZA-8" target="osm4gxQ5vxb-l2w61dZA-5">
          <mxGeometry relative="1" as="geometry">
            <Array as="points">
              <mxPoint x="361" y="497" />
              <mxPoint x="361" y="266" />
            </Array>
          </mxGeometry>
        </mxCell>
        <mxCell id="osm4gxQ5vxb-l2w61dZA-8" value="print : sum" style="rounded=0;whiteSpace=wrap;html=1;fillColor=#d5e8d4;strokeColor=#82b366;fontSize=13;strokeWidth=2;" vertex="1" parent="WIyWlLk6GJQsqaUBKTNV-1">
          <mxGeometry x="167" y="472" width="120" height="50" as="geometry" />
        </mxCell>
        <mxCell id="osm4gxQ5vxb-l2w61dZA-12" style="edgeStyle=orthogonalEdgeStyle;rounded=0;orthogonalLoop=1;jettySize=auto;html=1;entryX=0.5;entryY=0;entryDx=0;entryDy=0;fontSize=13;strokeWidth=2;" edge="1" parent="WIyWlLk6GJQsqaUBKTNV-1" source="osm4gxQ5vxb-l2w61dZA-13" target="osm4gxQ5vxb-l2w61dZA-18">
          <mxGeometry relative="1" as="geometry" />
        </mxCell>
        <mxCell id="osm4gxQ5vxb-l2w61dZA-13" value="Start" style="rounded=1;whiteSpace=wrap;html=1;fontSize=13;glass=0;strokeWidth=2;shadow=0;fillColor=#f8cecc;strokeColor=#b85450;" vertex="1" parent="WIyWlLk6GJQsqaUBKTNV-1">
          <mxGeometry x="823" y="82" width="90" height="40" as="geometry" />
        </mxCell>
        <mxCell id="osm4gxQ5vxb-l2w61dZA-14" style="edgeStyle=orthogonalEdgeStyle;rounded=0;orthogonalLoop=1;jettySize=auto;html=1;entryX=0.45;entryY=0;entryDx=0;entryDy=0;entryPerimeter=0;fontSize=13;strokeWidth=2;" edge="1" parent="WIyWlLk6GJQsqaUBKTNV-1" source="osm4gxQ5vxb-l2w61dZA-15" target="osm4gxQ5vxb-l2w61dZA-23">
          <mxGeometry relative="1" as="geometry" />
        </mxCell>
        <mxCell id="osm4gxQ5vxb-l2w61dZA-15" value="sum = sum + (i * i)" style="rhombus;whiteSpace=wrap;html=1;shadow=0;fontFamily=Helvetica;fontSize=13;align=center;strokeWidth=2;spacing=6;spacingTop=-4;fillColor=#fff2cc;strokeColor=#d6b656;" vertex="1" parent="WIyWlLk6GJQsqaUBKTNV-1">
          <mxGeometry x="803" y="342" width="130" height="90" as="geometry" />
        </mxCell>
        <mxCell id="osm4gxQ5vxb-l2w61dZA-16" value="End" style="rounded=1;whiteSpace=wrap;html=1;fontSize=13;glass=0;strokeWidth=2;shadow=0;fillColor=#f8cecc;strokeColor=#b85450;" vertex="1" parent="WIyWlLk6GJQsqaUBKTNV-1">
          <mxGeometry x="827" y="552" width="94" height="40" as="geometry" />
        </mxCell>
        <mxCell id="osm4gxQ5vxb-l2w61dZA-17" style="edgeStyle=orthogonalEdgeStyle;rounded=0;orthogonalLoop=1;jettySize=auto;html=1;entryX=0.5;entryY=0;entryDx=0;entryDy=0;fontSize=13;strokeWidth=2;" edge="1" parent="WIyWlLk6GJQsqaUBKTNV-1" source="osm4gxQ5vxb-l2w61dZA-18" target="osm4gxQ5vxb-l2w61dZA-20">
          <mxGeometry relative="1" as="geometry" />
        </mxCell>
        <mxCell id="osm4gxQ5vxb-l2w61dZA-18" value="iInitialize:&amp;nbsp;&lt;br style=&quot;font-size: 13px;&quot;&gt;sum = 0&lt;br style=&quot;font-size: 13px;&quot;&gt;i = 0" style="rounded=0;whiteSpace=wrap;html=1;fillColor=#d5e8d4;strokeColor=#82b366;fontSize=13;strokeWidth=2;" vertex="1" parent="WIyWlLk6GJQsqaUBKTNV-1">
          <mxGeometry x="808" y="162" width="120" height="50" as="geometry" />
        </mxCell>
        <mxCell id="osm4gxQ5vxb-l2w61dZA-19" style="edgeStyle=orthogonalEdgeStyle;rounded=0;orthogonalLoop=1;jettySize=auto;html=1;entryX=0.5;entryY=0;entryDx=0;entryDy=0;fontSize=13;strokeWidth=2;" edge="1" parent="WIyWlLk6GJQsqaUBKTNV-1" source="osm4gxQ5vxb-l2w61dZA-20" target="osm4gxQ5vxb-l2w61dZA-15">
          <mxGeometry relative="1" as="geometry" />
        </mxCell>
        <mxCell id="osm4gxQ5vxb-l2w61dZA-20" value="input: i" style="shape=parallelogram;perimeter=parallelogramPerimeter;whiteSpace=wrap;html=1;fixedSize=1;fillColor=#dae8fc;strokeColor=#6c8ebf;fontSize=13;strokeWidth=2;" vertex="1" parent="WIyWlLk6GJQsqaUBKTNV-1">
          <mxGeometry x="808" y="252" width="120" height="50" as="geometry" />
        </mxCell>
        <mxCell id="osm4gxQ5vxb-l2w61dZA-21" style="edgeStyle=orthogonalEdgeStyle;rounded=0;orthogonalLoop=1;jettySize=auto;html=1;entryX=0.5;entryY=0;entryDx=0;entryDy=0;fontSize=13;strokeWidth=2;" edge="1" parent="WIyWlLk6GJQsqaUBKTNV-1" source="osm4gxQ5vxb-l2w61dZA-23" target="osm4gxQ5vxb-l2w61dZA-16">
          <mxGeometry relative="1" as="geometry" />
        </mxCell>
        <mxCell id="osm4gxQ5vxb-l2w61dZA-22" style="edgeStyle=orthogonalEdgeStyle;rounded=0;orthogonalLoop=1;jettySize=auto;html=1;entryX=1;entryY=0.25;entryDx=0;entryDy=0;fontSize=13;strokeWidth=2;" edge="1" parent="WIyWlLk6GJQsqaUBKTNV-1" source="osm4gxQ5vxb-l2w61dZA-23" target="osm4gxQ5vxb-l2w61dZA-20">
          <mxGeometry relative="1" as="geometry">
            <Array as="points">
              <mxPoint x="1008" y="497" />
              <mxPoint x="1008" y="266" />
            </Array>
          </mxGeometry>
        </mxCell>
        <mxCell id="osm4gxQ5vxb-l2w61dZA-23" value="print : sum" style="rounded=0;whiteSpace=wrap;html=1;fillColor=#d5e8d4;strokeColor=#82b366;fontSize=13;strokeWidth=2;" vertex="1" parent="WIyWlLk6GJQsqaUBKTNV-1">
          <mxGeometry x="814" y="472" width="120" height="50" as="geometry" />
        </mxCell>
        <mxCell id="osm4gxQ5vxb-l2w61dZA-24" value="&lt;b&gt;&lt;font style=&quot;font-size: 18px;&quot;&gt;Task 0&lt;/font&gt;&lt;/b&gt;" style="text;strokeColor=none;fillColor=none;align=left;verticalAlign=middle;spacingLeft=4;spacingRight=4;overflow=hidden;points=[[0,0.5],[1,0.5]];portConstraint=eastwest;rotatable=0;whiteSpace=wrap;html=1;" vertex="1" parent="WIyWlLk6GJQsqaUBKTNV-1">
          <mxGeometry x="298" y="87" width="80" height="30" as="geometry" />
        </mxCell>
        <mxCell id="osm4gxQ5vxb-l2w61dZA-25" value="&lt;b&gt;&lt;font style=&quot;font-size: 18px;&quot;&gt;Task 1&lt;br&gt;&lt;/font&gt;&lt;/b&gt;" style="text;strokeColor=none;fillColor=none;align=left;verticalAlign=middle;spacingLeft=4;spacingRight=4;overflow=hidden;points=[[0,0.5],[1,0.5]];portConstraint=eastwest;rotatable=0;whiteSpace=wrap;html=1;" vertex="1" parent="WIyWlLk6GJQsqaUBKTNV-1">
          <mxGeometry x="936" y="87" width="80" height="30" as="geometry" />
        </mxCell>
        <mxCell id="osm4gxQ5vxb-l2w61dZA-26" style="edgeStyle=orthogonalEdgeStyle;rounded=0;orthogonalLoop=1;jettySize=auto;html=1;entryX=0.5;entryY=0;entryDx=0;entryDy=0;fontSize=13;strokeWidth=2;" edge="1" parent="WIyWlLk6GJQsqaUBKTNV-1" source="osm4gxQ5vxb-l2w61dZA-27" target="osm4gxQ5vxb-l2w61dZA-32">
          <mxGeometry relative="1" as="geometry" />
        </mxCell>
        <mxCell id="osm4gxQ5vxb-l2w61dZA-27" value="Start" style="rounded=1;whiteSpace=wrap;html=1;fontSize=13;glass=0;strokeWidth=2;shadow=0;fillColor=#f8cecc;strokeColor=#b85450;" vertex="1" parent="WIyWlLk6GJQsqaUBKTNV-1">
          <mxGeometry x="1389" y="80" width="90" height="40" as="geometry" />
        </mxCell>
        <mxCell id="osm4gxQ5vxb-l2w61dZA-28" style="edgeStyle=orthogonalEdgeStyle;rounded=0;orthogonalLoop=1;jettySize=auto;html=1;entryX=0.45;entryY=0;entryDx=0;entryDy=0;entryPerimeter=0;fontSize=13;strokeWidth=2;" edge="1" parent="WIyWlLk6GJQsqaUBKTNV-1" source="osm4gxQ5vxb-l2w61dZA-29" target="osm4gxQ5vxb-l2w61dZA-37">
          <mxGeometry relative="1" as="geometry" />
        </mxCell>
        <mxCell id="osm4gxQ5vxb-l2w61dZA-29" value="sum = sum + (i * i)" style="rhombus;whiteSpace=wrap;html=1;shadow=0;fontFamily=Helvetica;fontSize=13;align=center;strokeWidth=2;spacing=6;spacingTop=-4;fillColor=#fff2cc;strokeColor=#d6b656;" vertex="1" parent="WIyWlLk6GJQsqaUBKTNV-1">
          <mxGeometry x="1369" y="340" width="130" height="90" as="geometry" />
        </mxCell>
        <mxCell id="osm4gxQ5vxb-l2w61dZA-30" value="End" style="rounded=1;whiteSpace=wrap;html=1;fontSize=13;glass=0;strokeWidth=2;shadow=0;fillColor=#f8cecc;strokeColor=#b85450;" vertex="1" parent="WIyWlLk6GJQsqaUBKTNV-1">
          <mxGeometry x="1393" y="550" width="94" height="40" as="geometry" />
        </mxCell>
        <mxCell id="osm4gxQ5vxb-l2w61dZA-31" style="edgeStyle=orthogonalEdgeStyle;rounded=0;orthogonalLoop=1;jettySize=auto;html=1;entryX=0.5;entryY=0;entryDx=0;entryDy=0;fontSize=13;strokeWidth=2;" edge="1" parent="WIyWlLk6GJQsqaUBKTNV-1" source="osm4gxQ5vxb-l2w61dZA-32" target="osm4gxQ5vxb-l2w61dZA-34">
          <mxGeometry relative="1" as="geometry" />
        </mxCell>
        <mxCell id="osm4gxQ5vxb-l2w61dZA-32" value="iInitialize:&amp;nbsp;&lt;br style=&quot;font-size: 13px;&quot;&gt;sum = 0&lt;br style=&quot;font-size: 13px;&quot;&gt;i = 0" style="rounded=0;whiteSpace=wrap;html=1;fillColor=#d5e8d4;strokeColor=#82b366;fontSize=13;strokeWidth=2;" vertex="1" parent="WIyWlLk6GJQsqaUBKTNV-1">
          <mxGeometry x="1374" y="160" width="120" height="50" as="geometry" />
        </mxCell>
        <mxCell id="osm4gxQ5vxb-l2w61dZA-33" style="edgeStyle=orthogonalEdgeStyle;rounded=0;orthogonalLoop=1;jettySize=auto;html=1;entryX=0.5;entryY=0;entryDx=0;entryDy=0;fontSize=13;strokeWidth=2;" edge="1" parent="WIyWlLk6GJQsqaUBKTNV-1" source="osm4gxQ5vxb-l2w61dZA-34" target="osm4gxQ5vxb-l2w61dZA-29">
          <mxGeometry relative="1" as="geometry" />
        </mxCell>
        <mxCell id="osm4gxQ5vxb-l2w61dZA-34" value="input: i" style="shape=parallelogram;perimeter=parallelogramPerimeter;whiteSpace=wrap;html=1;fixedSize=1;fillColor=#dae8fc;strokeColor=#6c8ebf;fontSize=13;strokeWidth=2;" vertex="1" parent="WIyWlLk6GJQsqaUBKTNV-1">
          <mxGeometry x="1374" y="250" width="120" height="50" as="geometry" />
        </mxCell>
        <mxCell id="osm4gxQ5vxb-l2w61dZA-35" style="edgeStyle=orthogonalEdgeStyle;rounded=0;orthogonalLoop=1;jettySize=auto;html=1;entryX=0.5;entryY=0;entryDx=0;entryDy=0;fontSize=13;strokeWidth=2;" edge="1" parent="WIyWlLk6GJQsqaUBKTNV-1" source="osm4gxQ5vxb-l2w61dZA-37" target="osm4gxQ5vxb-l2w61dZA-30">
          <mxGeometry relative="1" as="geometry" />
        </mxCell>
        <mxCell id="osm4gxQ5vxb-l2w61dZA-36" style="edgeStyle=orthogonalEdgeStyle;rounded=0;orthogonalLoop=1;jettySize=auto;html=1;entryX=1;entryY=0.25;entryDx=0;entryDy=0;fontSize=13;strokeWidth=2;" edge="1" parent="WIyWlLk6GJQsqaUBKTNV-1" source="osm4gxQ5vxb-l2w61dZA-37" target="osm4gxQ5vxb-l2w61dZA-34">
          <mxGeometry relative="1" as="geometry">
            <Array as="points">
              <mxPoint x="1574" y="495" />
              <mxPoint x="1574" y="264" />
            </Array>
          </mxGeometry>
        </mxCell>
        <mxCell id="osm4gxQ5vxb-l2w61dZA-37" value="print : sum" style="rounded=0;whiteSpace=wrap;html=1;fillColor=#d5e8d4;strokeColor=#82b366;fontSize=13;strokeWidth=2;" vertex="1" parent="WIyWlLk6GJQsqaUBKTNV-1">
          <mxGeometry x="1380" y="470" width="120" height="50" as="geometry" />
        </mxCell>
        <mxCell id="osm4gxQ5vxb-l2w61dZA-38" value="&lt;b&gt;&lt;font style=&quot;font-size: 18px;&quot;&gt;Task 2&lt;br&gt;&lt;/font&gt;&lt;/b&gt;" style="text;strokeColor=none;fillColor=none;align=left;verticalAlign=middle;spacingLeft=4;spacingRight=4;overflow=hidden;points=[[0,0.5],[1,0.5]];portConstraint=eastwest;rotatable=0;whiteSpace=wrap;html=1;" vertex="1" parent="WIyWlLk6GJQsqaUBKTNV-1">
          <mxGeometry x="1502" y="85" width="80" height="30" as="geometry" />
        </mxCell>
      </root>
    </mxGraphModel>
  </diagram>
</mxfile>
